<?xml version="1.0" encoding="iso-8859-1"?>
<!-- Generator: Adobe Illustrator 19.0.0, SVG Export Plug-In . SVG Version: 6.00 Build 0)  -->
<svg version="1.1" id="Layer_1" xmlns="http://www.w3.org/2000/svg" xmlns:xlink="http://www.w3.org/1999/xlink" x="0px" y="0px"
	 viewBox="0 0 496 496" style="enable-background:new 0 0 496 496;" xml:space="preserve">
<g>
	<g>
		<g>
			<path d="M232,144h-8V0H48v144h-8c-22.056,0-40,17.944-40,40v312h272V184C272,161.944,254.056,144,232,144z M64,16h16v112h16V16
				h16v112h16V16h16v112h16V16h16v112h16V16h16v128H64V16z M256,480H16v-40h240V480z M256,424H16V216h240V424z M256,200H16v-16
				c0-13.232,10.768-24,24-24h192c13.232,0,24,10.768,24,24V200z"/>
			<path d="M136,408c48.52,0,88-39.48,88-88c0-48.52-39.48-88-88-88s-88,39.48-88,88C48,368.52,87.48,408,136,408z M136,248
				c39.704,0,72,32.296,72,72c0,39.704-32.296,72-72,72s-72-32.296-72-72C64,280.296,96.296,248,136,248z"/>
			<path d="M320,0v160h48v272v8v56h16v-56h16v56h16v-56h16v56h16v-56v-8V160h48V0H320z M432,424h-48V160h48V424z M480,144H336V16h16
				v112h16V16h16v112h16V16h16v112h16V16h16v112h16V16h16V144z"/>
		</g>
	</g>
</g>
<g>
</g>
<g>
</g>
<g>
</g>
<g>
</g>
<g>
</g>
<g>
</g>
<g>
</g>
<g>
</g>
<g>
</g>
<g>
</g>
<g>
</g>
<g>
</g>
<g>
</g>
<g>
</g>
<g>
</g>
</svg>
